<mxfile host="drawio-plugin" modified="2024-05-06T19:57:43.556Z" agent="5.0 (Macintosh; Intel Mac OS X 10_15_7) AppleWebKit/537.36 (KHTML, like Gecko) Chrome/122.0.0.0 Safari/537.36" etag="lHlz7HCC8MbiERRrWyhr" version="20.5.3" type="embed"><diagram name="Main Payments Service" id="Obrbr4Vz3u0_1d36ThNe"><mxGraphModel dx="1578" dy="768" grid="0" gridSize="10" guides="1" tooltips="1" connect="1" arrows="1" fold="1" page="0" pageScale="1" pageWidth="827" pageHeight="1169" math="0" shadow="0"><root><mxCell id="MoJ-YKAXfjhUIpLR4al3-0"/><mxCell id="MoJ-YKAXfjhUIpLR4al3-1" parent="MoJ-YKAXfjhUIpLR4al3-0"/><mxCell id="MoJ-YKAXfjhUIpLR4al3-2" value="" style="rounded=0;whiteSpace=wrap;html=1;fontStyle=1;fillColor=default;strokeWidth=2;fillStyle=auto;dashed=1;" parent="MoJ-YKAXfjhUIpLR4al3-1" vertex="1"><mxGeometry x="-270" y="4" width="999" height="750" as="geometry"/></mxCell><mxCell id="MoJ-YKAXfjhUIpLR4al3-3" value="" style="rounded=0;whiteSpace=wrap;html=1;fontStyle=1;fillColor=none;strokeWidth=2;dashed=1;" parent="MoJ-YKAXfjhUIpLR4al3-1" vertex="1"><mxGeometry x="-150" y="40" width="817" height="646" as="geometry"/></mxCell><mxCell id="MoJ-YKAXfjhUIpLR4al3-37" value="" style="ellipse;whiteSpace=wrap;html=1;aspect=fixed;strokeWidth=0;strokeColor=none;" parent="MoJ-YKAXfjhUIpLR4al3-1" vertex="1"><mxGeometry x="-320" y="232.5" width="110" height="110" as="geometry"/></mxCell><mxCell id="4" style="edgeStyle=orthogonalEdgeStyle;rounded=0;orthogonalLoop=1;jettySize=auto;html=1;entryX=0.11;entryY=0.511;entryDx=0;entryDy=0;entryPerimeter=0;" parent="MoJ-YKAXfjhUIpLR4al3-1" source="MoJ-YKAXfjhUIpLR4al3-38" target="MoJ-YKAXfjhUIpLR4al3-3" edge="1"><mxGeometry relative="1" as="geometry"/></mxCell><mxCell id="MoJ-YKAXfjhUIpLR4al3-38" value="" style="outlineConnect=0;dashed=0;verticalLabelPosition=bottom;verticalAlign=top;align=center;html=1;fontSize=12;fontStyle=0;aspect=fixed;pointerEvents=1;shape=mxgraph.aws4.network_load_balancer;fillColor=#6a00ff;strokeColor=#3700CC;fontColor=#ffffff;" parent="MoJ-YKAXfjhUIpLR4al3-1" vertex="1"><mxGeometry x="-309.5" y="333" width="74" height="74" as="geometry"/></mxCell><mxCell id="MoJ-YKAXfjhUIpLR4al3-39" value="Public &lt;br&gt;Network" style="text;html=1;align=center;verticalAlign=middle;resizable=0;points=[];autosize=1;strokeColor=none;" parent="MoJ-YKAXfjhUIpLR4al3-1" vertex="1"><mxGeometry x="-408" y="325" width="54" height="32" as="geometry"/></mxCell><mxCell id="MoJ-YKAXfjhUIpLR4al3-40" value="Private&lt;br&gt;Network" style="text;html=1;align=center;verticalAlign=middle;resizable=0;points=[];autosize=1;strokeColor=none;" parent="MoJ-YKAXfjhUIpLR4al3-1" vertex="1"><mxGeometry x="-242" y="74" width="54" height="32" as="geometry"/></mxCell><mxCell id="MoJ-YKAXfjhUIpLR4al3-58" value="Load Balancer" style="text;html=1;align=center;verticalAlign=middle;resizable=0;points=[];autosize=1;strokeColor=none;" parent="MoJ-YKAXfjhUIpLR4al3-1" vertex="1"><mxGeometry x="-314" y="271" width="87" height="18" as="geometry"/></mxCell><mxCell id="0ayYojwQcvTGPDUYHFci-0" value="" style="group" parent="MoJ-YKAXfjhUIpLR4al3-1" vertex="1" connectable="0"><mxGeometry x="-517" y="334" width="80" height="80" as="geometry"/></mxCell><mxCell id="XlERCXYJoachLAWnKIzD-0" value="" style="ellipse;whiteSpace=wrap;html=1;aspect=fixed;fillStyle=auto;" parent="0ayYojwQcvTGPDUYHFci-0" vertex="1"><mxGeometry width="80" height="80" as="geometry"/></mxCell><mxCell id="0ayYojwQcvTGPDUYHFci-6" value="Transfer Requests" style="text;html=1;resizable=0;autosize=1;align=center;verticalAlign=middle;points=[];fillColor=none;strokeColor=none;rounded=0;fillStyle=auto;" parent="MoJ-YKAXfjhUIpLR4al3-1" vertex="1"><mxGeometry x="-539" y="292" width="116" height="26" as="geometry"/></mxCell><mxCell id="5" style="edgeStyle=orthogonalEdgeStyle;rounded=0;orthogonalLoop=1;jettySize=auto;html=1;entryX=0.5;entryY=0;entryDx=0;entryDy=0;" parent="MoJ-YKAXfjhUIpLR4al3-1" source="UPwPihR9U3PeY4CjQXII-0" target="_lhErAnkib25VCGGUWqE-0" edge="1"><mxGeometry relative="1" as="geometry"/></mxCell><mxCell id="UPwPihR9U3PeY4CjQXII-0" value="api" style="rounded=0;whiteSpace=wrap;html=1;" parent="MoJ-YKAXfjhUIpLR4al3-1" vertex="1"><mxGeometry x="-61" y="344" width="120" height="60" as="geometry"/></mxCell><mxCell id="AAcZ-q7HfI9-OeqjXcIQ-0" value="" style="shape=cylinder3;whiteSpace=wrap;html=1;boundedLbl=1;backgroundOutline=1;size=15;" parent="MoJ-YKAXfjhUIpLR4al3-1" vertex="1"><mxGeometry x="253.69" y="509" width="60" height="80" as="geometry"/></mxCell><mxCell id="6" style="edgeStyle=orthogonalEdgeStyle;rounded=0;orthogonalLoop=1;jettySize=auto;html=1;" parent="MoJ-YKAXfjhUIpLR4al3-1" source="_lhErAnkib25VCGGUWqE-0" target="t65IUd-lonqh68D3Nb9Z-0" edge="1"><mxGeometry relative="1" as="geometry"/></mxCell><mxCell id="8" style="edgeStyle=orthogonalEdgeStyle;rounded=0;orthogonalLoop=1;jettySize=auto;html=1;entryX=0.5;entryY=0;entryDx=0;entryDy=0;entryPerimeter=0;" parent="MoJ-YKAXfjhUIpLR4al3-1" source="_lhErAnkib25VCGGUWqE-0" target="AAcZ-q7HfI9-OeqjXcIQ-0" edge="1"><mxGeometry relative="1" as="geometry"/></mxCell><mxCell id="_lhErAnkib25VCGGUWqE-0" value="Pekko Cluster with Event Sourcing + CQRS" style="rounded=0;whiteSpace=wrap;html=1;" parent="MoJ-YKAXfjhUIpLR4al3-1" vertex="1"><mxGeometry x="202.89" y="344" width="161.61" height="68" as="geometry"/></mxCell><mxCell id="t65IUd-lonqh68D3Nb9Z-0" value="Acquirers" style="rounded=0;whiteSpace=wrap;html=1;" parent="MoJ-YKAXfjhUIpLR4al3-1" vertex="1"><mxGeometry x="477" y="347" width="120" height="62" as="geometry"/></mxCell><mxCell id="0" value="SpringBoot API" style="text;html=1;resizable=0;autosize=1;align=center;verticalAlign=middle;points=[];fillColor=none;strokeColor=none;rounded=0;fillStyle=auto;" parent="MoJ-YKAXfjhUIpLR4al3-1" vertex="1"><mxGeometry x="-56" y="282.5" width="99" height="26" as="geometry"/></mxCell><mxCell id="1" value="Apache Cassandra State Store" style="text;html=1;resizable=0;autosize=1;align=center;verticalAlign=middle;points=[];fillColor=none;strokeColor=none;rounded=0;fillStyle=auto;" parent="MoJ-YKAXfjhUIpLR4al3-1" vertex="1"><mxGeometry x="192.19" y="593" width="183" height="26" as="geometry"/></mxCell><mxCell id="2" value="Validations and Event Processing using&amp;nbsp;" style="text;html=1;resizable=0;autosize=1;align=center;verticalAlign=middle;points=[];fillColor=none;strokeColor=none;rounded=0;fillStyle=auto;" parent="MoJ-YKAXfjhUIpLR4al3-1" vertex="1"><mxGeometry x="128" y="286" width="231" height="26" as="geometry"/></mxCell><mxCell id="9" style="edgeStyle=orthogonalEdgeStyle;rounded=0;orthogonalLoop=1;jettySize=auto;html=1;entryX=-0.047;entryY=0.554;entryDx=0;entryDy=0;entryPerimeter=0;" edge="1" parent="MoJ-YKAXfjhUIpLR4al3-1" source="XlERCXYJoachLAWnKIzD-0" target="MoJ-YKAXfjhUIpLR4al3-38"><mxGeometry relative="1" as="geometry"/></mxCell></root></mxGraphModel></diagram></mxfile>